<svg viewBox="0 0 128 128" xmlns="http://www.w3.org/2000/svg" xmlns:xlink="http://www.w3.org/1999/xlink"><radialGradient id="a" cx="62.5" cy="65.4" gradientTransform="matrix(1 0 0 -1 0 127.9)" gradientUnits="userSpaceOnUse" r="62.5"><stop offset=".4" stop-color="#ffff8f"/><stop offset="1" stop-color="#ffe8a8" stop-opacity="0"/></radialGradient><path d="m0 0h128v128h-128z" fill="#ffc7fc"/><circle cx="64" cy="64" fill="url(#a)" r="64"/><path d="m95.1 48.7 22.1-5.6 6.3-21.9-15.9-16.3-22.1 5.5-6.3 21.9z" fill="#65b7db"/><path d="m85.5 10.4-6.3 21.9 21.2-14.3 7.2-13.1z" fill="#add3f7"/><path d="m123.6 21.6-23.2-3.6 7.2-13.1z" fill="#e8eff2"/><path d="m107.1 34.3-6.7-16.3 23.2 3.6-6.4 21.5z" fill="#94c8e0"/><path d="m39 119.1 45.6-11.4 12.9-45.2-32.6-33.8-45.7 11.4-12.9 45.2z" fill="#65b7db"/><path d="m19.2 40.1-12.9 45.2 43.7-29.5 14.9-27.1z" fill="#add3f7"/><path d="m97.9 63.3-47.9-7.5 14.9-27.1z" fill="#e8eff2"/><path d="m63.8 89.5-13.8-33.7 47.9 7.5-13.3 44.4z" fill="#94c8e0"/></svg>